<?xml version="1.0" encoding="UTF-8"?>
<svg id="Layer_1" xmlns="http://www.w3.org/2000/svg" version="1.1" viewBox="0 0 383.21344 186">
  <!-- Generator: Adobe Illustrator 30.0.0, SVG Export Plug-In . SVG Version: 2.1.1 Build 123)  -->
  <defs>
    <style>
      .st0 {
        fill: #231f20;
      }

      .st1 {
        fill: #ad4f01;
      }

      .st2 {
        fill: none;
        opacity: .9;
        stroke: #e5e5e5;
        stroke-miterlimit: 10;
      }

      .st2, .st3 {
        isolation: isolate;
      }

      .st3 {
        fill: #fff;
      }
    </style>
  </defs>
  <path id="Union_1" class="st3" d="M13.48729,160.91098H-.01393V11.14671h33.10299c27.40247-14.6769,60.40546-14.6769,87.80793,0h249.12249v149.76428h-229.62073c-35.70322,33.24768-91.20823,33.24768-126.91145,0v-.00002Z"/>
  <g id="Group_966">
    <path id="Path_252" class="st1" d="M77.33605,18.21456C35.9323,18.21456,2.32928,51.76176,2.32928,93.0967s33.60304,74.78228,75.00676,74.88214c41.40374,0,75.00677-33.5472,75.00677-74.88214-.1-41.33495-33.60304-74.88214-75.00677-74.88214ZM77.33605,160.79017c-37.40338,0-67.80612-30.35223-67.80612-67.69346S39.83267,25.40326,77.33605,25.40326c37.40338,0,67.80611,30.35222,67.80611,67.69345-.10001,37.34123-30.40275,67.69346-67.80612,67.69346h0Z"/>
    <g id="Group_965">
      <g id="Group_953">
        <path id="Path_253" d="M81.74545,100.81447h-4.70043c-29.60268-.59906-52.70476-6.09042-52.60474-12.5802.20002-5.99057,21.00189-10.58334,48.40436-10.58334h4.70043c29.60266.59906,52.70476,6.09042,52.60475,12.5802-.20002,6.09042-21.00189,10.58334-48.40437,10.58334ZM72.84464,78.54951c-26.50239,0-47.40428,4.29325-47.50429,9.7846-.1,5.19183,20.70187,11.08255,51.70467,11.68161,28.70259.49921,52.00469-3.89387,52.1047-9.68476.20002-5.29167-20.60185-11.1824-51.70466-11.78145h-4.60042Z"/>
      </g>
      <g id="Group_954">
        <path id="Path_254" d="M58.45234,112.39033c-12.2011,0-20.90189-4.19341-24.00216-11.48192-5.20047-12.5802,8.50077-30.25238,30.70277-39.53777,8.10073-3.4945,16.80152-5.39152,25.70232-5.49135,12.2011,0,20.90189,4.19341,24.00216,11.48192,2.60024,6.09042.70007,13.67848-5.10047,21.16668-5.80053,7.38837-14.90134,13.87815-25.60231,18.37108-8.10074,3.4945-16.90152,5.39151-25.70232,5.49135h.00002ZM90.85527,56.97755c-8.70079.09984-17.30156,1.99685-25.30228,5.39152-21.60195,8.98586-35.10316,26.05898-30.10271,38.04014,2.80026,6.78931,11.40103,10.78302,23.00208,10.78302,8.70079-.09984,17.30156-1.99685,25.30228-5.39151,10.50095-4.29325,19.40175-10.68319,25.10227-17.97171,5.6005-7.18869,7.40067-14.27753,5.00044-19.96857-2.90026-6.78932-11.50104-10.88287-23.00208-10.88287h0Z"/>
      </g>
      <g id="Group_955">
        <path id="Path_255" d="M82.23649,135.93723c-17.90161,0-32.60294-19.76888-32.70295-44.0307-.10001-24.36165,14.4013-44.23039,32.40292-44.33023h.10001c17.90161,0,32.60294,19.76888,32.70295,44.0307.10001,11.78145-3.30029,22.86401-9.40084,31.25081-6.10055,8.3868-14.30129,13.07942-23.00208,13.07942h-.10001ZM82.03647,48.17536h-.10001c-17.60159.09984-31.90288,19.66904-31.80287,43.63132.10001,23.96229,14.50131,43.43166,32.1029,43.43166h.10001c8.50077,0,16.5015-4.59277,22.50203-12.77989,6.00055-8.28696,9.30084-19.16983,9.30084-30.85145-.10001-23.96228-14.50131-43.43164-32.1029-43.43164Z"/>
      </g>
      <g id="Group_956">
        <path id="Path_256" d="M71.99456,141.64821h-.70007c-6.7006-.29954-12.90117-4.89231-17.30156-12.97958-4.4004-7.98744-6.50058-18.57077-5.90053-29.55349,1.00009-22.66433,12.60114-40.33652,26.30237-40.33652h.70007c6.80061.29953,12.90117,4.99214,17.30156,13.07942,4.4004,7.98744,6.50058,18.57077,6.00055,29.55348-1.1001,22.56449-12.70114,40.23667-26.40239,40.23667v.00002ZM74.39479,59.37771c-13.20119,0-24.70223,17.77203-25.70232,39.73745-.50005,10.88286,1.60014,21.36636,5.90053,29.25396,4.30039,7.88758,10.20093,12.38051,16.70151,12.68003,13.40121.59905,25.4023-17.37265,26.40239-39.63761.50005-10.88288-1.60014-21.36637-5.90053-29.25395-4.20038-7.98743-10.20092-12.48036-16.70151-12.77989,0,0-.70007,0-.70007,0Z"/>
      </g>
      <g id="Group_957">
        <path id="Path_257" d="M76.63499,122.30077h-.50005c-20.20182-.19969-36.6033-12.77989-36.40328-27.85616.10001-14.97643,16.50149-27.15725,36.5033-27.15725h.50005c9.80089.09984,19.00172,2.99529,25.80233,8.28696,6.90062,5.29167,10.70096,12.18083,10.60096,19.5692-.20002,14.97643-16.5015,27.15725-36.5033,27.15725ZM76.23495,67.8864c-19.60177,0-35.70322,11.8813-35.90324,26.45836-.10001,14.87658,15.90144,27.05741,35.80323,27.2571h.50005c19.60177,0,35.70322-11.8813,35.80323-26.45835.10001-7.18869-3.60033-13.87815-10.30093-19.06999-6.80061-5.19183-15.80143-8.08727-25.40229-8.18711h-.50005v-.00002Z"/>
      </g>
      <g id="Group_958">
        <path id="Path_258" d="M120.97399,114.41407c-6.6006,0-17.50158-2.39623-29.80269-6.68947-5.30048-1.79716-10.80098-3.89387-16.30148-6.2901-27.40247-11.68161-46.80422-25.45993-44.304-31.25081.70007-1.69732,3.10028-2.59591,7.10064-2.59591,9.80088,0,27.40247,4.99214,46.10416,12.97958,13.00117,5.49135,24.70223,11.78145,33.10299,17.67218,8.50077,5.89073,12.50113,10.68319,11.30103,13.57863-.80007,1.69732-3.20029,2.59591-7.20065,2.59591h.00002ZM37.66646,68.18683c-3.70034,0-6.00055.79874-6.6006,2.19654-2.30021,5.39151,17.80161,19.26967,44.00397,30.45207,5.5005,2.39623,11.00099,4.49293,16.30148,6.2901,12.30112,4.19341,23.10208,6.58963,29.60266,6.58963,3.70034,0,6.00054-.79874,6.6006-2.19654,1.1001-2.49607-2.90026-7.18869-11.00099-12.87973-8.30075-5.79088-20.00181-12.08099-33.00298-17.57235-18.60167-7.88758-36.20327-12.87973-45.90414-12.87973h.00001Z"/>
      </g>
      <g id="Group_959">
        <path id="Path_259" d="M89.95518,135.2453c-1.80015,0-3.60033-.19968-5.40048-.59905-16.70151-3.89387-26.10236-25.1604-20.90189-47.5252,4.60042-19.86874,19.00172-34.14626,34.4031-34.14626h.40004v.89859c-15.00136-.19969-29.30265,13.87815-33.90306,33.44737-5.10046,21.86559,4.00036,42.73274,20.30184,46.42693,2.40022.59905,4.90045.69889,7.30066.49921l.10001.89859c-.80007.09984-1.60014.09984-2.3002.09984l-.00002-.00002Z"/>
      </g>
      <g id="Group_960">
        <path id="Path_260" d="M43.531,126.39621c-7.40067,0-12.60114-2.0967-15.10136-6.19026-6.7006-11.08256,8.90081-32.34908,35.50321-48.42378,15.80143-9.58491,32.30292-15.27596,44.40401-15.27596,7.40067,0,12.60113,2.0967,15.00136,6.19026,3.30029,5.39151,1.30012,13.37894-5.6005,22.66432-6.7006,8.98586-17.30156,18.1714-29.9027,25.75946-15.70142,9.58491-32.30292,15.27596-44.304,15.27596h-.00002ZM108.33684,58.10371c-11.80107,0-28.10254,5.59119-43.50393,14.97643-25.4023,15.3758-41.10371,36.14311-35.00316,46.22724,2.2002,3.4945,6.90062,5.39151,13.70124,5.39151,11.80107,0,28.10254-5.59119,43.50393-14.97643,12.40112-7.48822,22.90206-16.47408,29.50266-25.36009,6.40058-8.68632,8.40076-16.0747,5.50049-20.86716-2.20019-3.4945-6.90062-5.39152-13.70123-5.39152h0Z"/>
      </g>
      <g id="Group_961">
        <path id="Path_261" d="M50.18959,143.73299c-1.50014,0-3.00028-.39937-4.20038-1.19811-8.30075-5.7909-.80007-30.35223,17.10155-55.912,15.10136-21.46621,32.50293-36.44264,42.50383-36.44264,1.50014,0,3.00027.39937,4.20038,1.19811,8.30075,5.79088.80007,30.35223-17.10154,55.91201-15.10136,21.46621-32.50293,36.44265-42.50383,36.44265v-.00002ZM105.59459,51.57805c-9.40084,0-26.7024,15.07626-41.30373,35.84359-16.80152,24.06213-24.80223,48.72332-17.50158,53.91513,1.00009.69889,2.2002.99843,3.40031.99843,9.40084,0,26.7024-15.07627,41.30373-35.84359,16.80151-24.06213,24.80223-48.72332,17.50158-53.91514-1.00009-.6989-2.20019-.99843-3.40031-.99842Z"/>
      </g>
      <g id="Group_962">
        <path id="Path_262" d="M107.53977,140.01785c-10.0009,0-28.20254-13.77832-44.20398-33.34751-9.30084-11.38208-16.70151-23.26339-20.70187-33.44735-4.20038-10.38366-4.30039-17.87187-.50005-20.967,1.40013-1.09828,3.10028-1.59749,4.90044-1.59749,10.10091,0,28.30256,13.67847,44.30401,33.24768,9.30084,11.38208,16.70151,23.26338,20.70187,33.44736,4.20038,10.38366,4.30039,17.87188.50005,20.96701-1.50014,1.19811-3.20029,1.69732-5.00044,1.69732l-.00002-.00002ZM46.9343,52.15613c-1.40013-.09984-2.80026.39937-4.00036,1.19811-3.30029,2.69575-2.90026,9.68476.90009,19.36951,4.00036,9.98429,11.30102,21.76575,20.50185,33.04798,15.80142,19.26967,33.60304,32.74846,43.20389,32.74846,1.40012.09984,2.80025-.39937,4.00036-1.19811,3.30029-2.69575,2.90026-9.68475-.90009-19.36951-4.00036-9.98429-11.30102-21.76574-20.50186-33.04799-15.80143-19.36952-33.50302-32.74846-43.2039-32.74846v.00002Z"/>
      </g>
      <g id="Group_963">
        <path id="Path_263" d="M73.34269,148.04918c-.40004,0-.90009,0-1.30012-.09984-15.50139-1.3978-25.80233-27.15725-23.00208-57.40964,2.80025-30.25238,17.50158-53.8153,33.00298-52.4175,7.50067.6989,14.00127,7.18868,18.40166,18.1714,4.20038,10.78302,5.90053,24.76103,4.50041,39.33808-2.60024,29.45365-16.50149,52.4175-31.60286,52.4175ZM80.64335,39.61984c-14.30129,0-27.60249,22.46464-30.20273,51.11954-2.70024,29.45363,7.10064,54.5142,21.70196,55.81215,14.80134,1.29795,28.70259-21.56606,31.40283-51.0197,1.30012-14.37737-.30003-28.15568-4.50041-38.73903-4.10037-10.38366-10.20092-16.47407-17.20155-17.17297,0,0-1.20011,0-1.2001,0Z"/>
      </g>
      <g id="Group_964">
        <path id="Path_264" d="M72.79563,129.53832c-23.80214,0-43.2039-13.97801-45.20408-32.44893-1.1001-9.98429,2.90026-19.86872,11.20101-27.85616s19.80179-13.17925,32.60294-14.47722c2.3002-.29954,4.50041-.39937,6.7006-.39937,23.80214,0,43.2039,13.978,45.20408,32.44893,2.3002,20.46778-17.40157,39.53777-43.80395,42.43321-2.20021.19969-4.4004.29954-6.70059.29954ZM78.09612,55.45492c-2.20021,0-4.4004.09984-6.6006.29953-12.50113,1.3978-23.90216,6.38994-32.00289,14.17768-8.10072,7.78775-11.90108,17.37265-10.90098,27.05741,1.90017,17.97171,20.90189,31.4505,44.10398,31.4505,2.20021,0,4.4004-.09984,6.6006-.39937,25.80233-2.7956,45.00406-21.26652,42.90388-41.2351-1.90017-17.87187-20.90189-31.35065-44.10398-31.35065h-.00002Z"/>
      </g>
    </g>
  </g>
  <g id="Group_992">
    <g id="Group_967">
      <path id="Path_265" d="M224.42632,65.37753c-6.6006,0-11.70105,1.99685-15.20137,5.99057-3.10028-3.99372-7.70068-5.99057-13.60123-5.99057-4.4004-.19969-8.8008,1.19811-12.40112,3.79403h0c-.1-.6989-.50005-1.29795-1.00008-1.79716-.60005-.6989-1.50013-1.09828-2.50023-1.09828h-1.80015c-1.80015-.19969-3.30029,1.09828-3.50031,2.89544v42.03384c0,2.19654,1.30012,3.39466,3.50031,3.39466h1.80015c1.70016.19969,3.30029-.99843,3.50031-2.7956v-23.96229c-.1-3.39466.80007-6.78931,2.80025-9.68476,2.00018-2.7956,5.20047-4.39308,8.60077-4.19341,6.30057,0,9.40084,3.19497,9.40084,9.88445v27.35694c0,2.19654,1.30012,3.39466,3.50031,3.39466h1.80015c2.3002,0,3.60033-1.19812,3.60033-3.39466v-26.25868c-.20001-2.99529,1.00008-5.99057,3.10028-8.08727,2.3002-1.99685,5.30048-3.09513,8.30075-2.99529,6.20057,0,9.20083,3.19497,9.20083,9.88444v27.35694c-.20001,1.69732,1.1001,3.29482,2.90027,3.39466h2.50023c.90009,0,1.80015-.39937,2.50023-.99843s1.1001-1.49764,1.1001-2.49607v-28.05584c.1-11.68161-6.00054-17.57235-18.10162-17.57235l.00002.00002Z"/>
      <path id="Path_266" d="M288.73215,71.56779c-4.10036-5.09198-10.00092-7.6879-17.40157-7.6879-5.30048-.09984-10.50094,1.69733-14.5013,5.19183v-17.17297c.20001-1.69733-1.1001-3.29482-2.80025-3.39466h-2.40022c-1.70016-.19969-3.30029,1.09828-3.40032,2.7956v59.70603c-.20001,1.69732,1.00008,3.29482,2.80025,3.4945h2.40022c1.70016.19969,3.30029-1.09826,3.40032-2.89544v-1.49764c4.00036,3.4945,9.20082,5.39151,14.5013,5.29168,7.30065,0,13.20118-2.49607,17.30157-7.48821,3.90036-4.49294,5.80053-10.48351,5.80053-17.87188,0-7.28853-1.80017-13.2791-5.30048-17.57234,0-.29953-.20003-.59905-.40002-.89859l-.00003-.00003ZM282.03151,102.1197c-2.50021,3.09513-5.90053,4.69262-10.30094,4.69262-4.10036.19969-8.10074-1.49764-10.80098-4.59277s-4.10036-7.08885-4.10036-11.98114c0-5.49135,1.20011-9.7846,3.60033-12.87973,2.90027-2.99529,7.00063-4.69262,11.20101-4.69262,4.80043,0,8.40074,1.69732,10.80099,5.09198,2.20019,3.09513,3.40032,7.18869,3.40032,12.18083-.1,4.89229-1.30012,9.0857-3.80034,12.18083h-.00003Z"/>
      <path id="Path_267" d="M348.23752,65.37753c-6.6006,0-11.70106,1.99685-15.20137,5.99057-3.10029-3.99372-7.7007-5.99057-13.60123-5.99057-4.40038-.19969-8.8008,1.19811-12.40111,3.79403h0c-.1-.6989-.50005-1.29795-1.0001-1.79716-.60005-.6989-1.50015-1.09828-2.50021-1.09828h-1.80017c-1.80017-.19969-3.30032,1.09828-3.50031,2.89544v42.03384c0,2.19654,1.30012,3.39466,3.50031,3.39466h1.80017c2.20019,0,3.50031-1.19812,3.50031-3.39466v-23.36322c-.1-3.39466.80007-6.78931,2.80027-9.68476,2.0002-2.7956,5.20045-4.39308,8.60077-4.19341,6.30058,0,9.40084,3.19497,9.40084,9.88445v27.35694c0,2.19654,1.30012,3.39466,3.50031,3.39466h1.80017c2.30022,0,3.60034-1.19812,3.60034-3.39466v-26.25868c-.20003-2.99529,1.0001-5.99057,3.10029-8.08727,2.30022-1.99685,5.30048-3.09513,8.30075-2.99529,6.20055,0,9.20082,3.19497,9.20082,9.88444v27.35694c0,2.19654,1.30012,3.39466,3.50031,3.39466h1.80017c.90007,0,1.80017-.39937,2.50021-.99843s1.1001-1.49764,1.1001-2.49607v-28.05584c.30002-11.68161-5.90056-17.57235-18.00164-17.57235h0Z"/>
    </g>
    <g id="Group_991">
      <g id="Group_968">
        <path id="Path_268" class="st1" d="M175.47991,128.66297l-.1.19969c-.1.29953-.30004.49921-.60005.49921s-.60005-.19969-.60005-.49921v-1.59749c.1-.39937.30004-.59906.60005-.59906.20001,0,.50005.19969.70006.59906v1.3978h-.00002ZM175.47991,139.84537c0,.09984-.1.29952-.20001.39937-.1.09984-.20001.19968-.40004.19968h-.20001c-.40004,0-.50005-.19968-.50005-.59905v-8.98586c0-.39937.20001-.59906.50005-.59906h.20001c.30004,0,.60005.29953.60005.59906v8.98586Z"/>
      </g>
      <g id="Group_969">
        <path id="Path_269" class="st1" d="M185.55181,139.89126c0,.29952-.20001.49921-.50005.49921h-.40004c-.30004,0-.50005-.19968-.50005-.49921v-5.79088c0-.59906-.20001-1.19812-.70006-1.69732-.50005-.39937-1.1001-.59906-1.80015-.59906-.80007,0-1.60014.29953-2.10019.79874-.50005.59906-.80007,1.3978-.80007,2.29639v4.8923c0,.09984-.1.29952-.20001.39937.10001.19968-.1.19968-.20001.19968h-.40004c-.30004,0-.50005-.09984-.50005-.39937v-8.78617c0-.09984.1-.29953.20001-.39937.1-.09984.20001-.19969.40004-.19969h.40004c.1,0,.30004.09984.40004.19969.1.09984.20001.19969.20001.39937v.19969c.1-.09984.20001-.19969.40004-.29953h.1c.70006-.49921,1.50013-.6989,2.40022-.6989,1.00008,0,1.90017.29953,2.70024.89859h0c.80007.6989,1.20011,1.69732,1.20011,2.69575l-.30004,5.89073h.00003Z"/>
      </g>
      <g id="Group_970">
        <path id="Path_270" class="st1" d="M190.74029,131.82003c0,.09984-.1.29953-.1.39937-.1.09984-.20001.19969-.40004.19969h-1.1001v7.48821c0,.09984-.1.29952-.1.39937-.1.09984-.20001.19968-.40004.19968h-.30004c-.1,0-.30004-.09984-.40004-.19968s-.20001-.19968-.20001-.39937v-7.48821h-1.00008c-.1,0-.30004-.09984-.40004-.19969v-.6989c0-.39937.20001-.59906.50005-.59906h1.00008v-2.19654c0-.39937.20001-.59906.50005-.59906h.30004c.1,0,.30004.09984.40004.19969.1.09984.1.19969.1.39937v2.19654h1.1001c.30004,0,.50005.19969.50005.59906v.29953h-.00003Z"/>
      </g>
      <g id="Group_971">
        <path id="Path_271" class="st1" d="M200.49217,135.55914c0,.29952-.20001.49921-.40004.59905h-7.60069c-.1,1.59748,1.20011,2.99529,2.80025,3.09513h.50005c.60005,0,1.30012-.19968,1.80015-.49921.60005-.29952,1.00008-.79873,1.20011-1.3978h0c0-.29952.30004-.39937.50005-.39937h.40004c.30004,0,.50005.19968.60005.39937v.19968c-.60005,1.99686-2.10019,2.99529-4.50041,2.99529-1.30012.09984-2.60024-.39937-3.50031-1.3978-.80007-1.09827-1.30012-2.39623-1.20011-3.69418-.1-1.29795.40004-2.59591,1.30012-3.59434s2.20021-1.49764,3.50031-1.49764c2.50023-.19969,4.60041,1.69732,4.80043,4.19341v.59905l-.20001.39937ZM198.89203,134.66055c-.1-.6989-.40004-1.3978-.80007-1.89701-.60005-.59906-1.50013-.99843-2.3002-.89859-.80007,0-1.60014.19969-2.20021.79874-.60005.49921-1.00008,1.29795-1.1001,2.0967h6.40058v-.09984Z"/>
      </g>
      <g id="Group_972">
        <path id="Path_272" class="st1" d="M202.81437,139.80746c0,.09984-.1.29952-.20001.39937-.1.09984-.20001.19968-.40004.19968h-.20001c-.40004,0-.60005-.19968-.60005-.49921v-12.18083c0-.29953.20001-.49921.40004-.59906h.30004c.30004,0,.50005.29953.60005.59906v12.08099h.10001-.00003Z"/>
      </g>
      <g id="Group_973">
        <path id="Path_273" class="st1" d="M205.73864,139.80746c0,.09984-.1.29952-.20001.39937-.1.09984-.20001.19968-.40004.19968h-.20001c-.40004,0-.60005-.19968-.60005-.49921v-12.18083c0-.29953.20001-.49921.40004-.59906h.30004c.30004,0,.50005.29953.60005.59906l.10001,12.08099h-.00003Z"/>
      </g>
      <g id="Group_974">
        <path id="Path_274" class="st1" d="M216.52662,135.55914c0,.29952-.20001.49921-.40004.59905h-7.60069c-.1,1.59748,1.20011,2.99529,2.80025,3.09513h.50005c.60005,0,1.30012-.19968,1.80015-.49921.60005-.29952,1.00008-.79873,1.20011-1.3978h0c0-.29952.30004-.39937.50005-.39937h.40004c.30004,0,.50005.19968.60005.39937v.19968c-.60005,1.99686-2.10019,2.99529-4.50041,2.99529-1.30012.09984-2.60024-.39937-3.50031-1.3978-.80007-1.09827-1.30012-2.39623-1.20011-3.69418-.1-1.29795.40004-2.59591,1.30012-3.59434s2.20021-1.49764,3.50031-1.49764c2.50023-.19969,4.60041,1.69732,4.80043,4.19341v.59905l-.20001.39937ZM214.92646,134.66055c-.1-.6989-.40004-1.3978-.80007-1.89701-.60005-.59906-1.50013-.99843-2.3002-.89859-.80007,0-1.60014.19969-2.20021.79874-.60005.49921-1.00008,1.29795-1.1001,2.0967h6.40056v-.09984h.00002Z"/>
      </g>
      <g id="Group_975">
        <path id="Path_275" class="st1" d="M226.36748,137.35632c-.20001.99843-.80007,1.89702-1.70016,2.49607h-.1c-.80007.49921-1.70016.69889-2.60024.69889-1.30012.09984-2.60024-.39937-3.50031-1.3978s-1.30012-2.19654-1.30012-3.4945c-.1-1.3978.40004-2.7956,1.30012-3.79403s2.3002-1.59749,3.70034-1.49764c.90009,0,1.70016.19969,2.50023.6989s1.30012,1.29795,1.50013,2.19654v.09984c0,.19969-.1.39937-.20001.49921l-.40004.19969c-.1,0-.20001.09984-.30004.09984-.30004,0-.50005-.19969-.50005-.39937-.20001-1.19812-1.40013-2.0967-2.60024-1.89701-1.00008-.09984-1.90017.29953-2.60024,1.09828-.60005.79874-.90009,1.79718-.90009,2.79561-.1.89859.20001,1.79718.80007,2.49607s1.50013.99843,2.50023.99843c.60005,0,1.30012-.19968,1.80015-.49921.60005-.29952.90009-.89859,1.1001-1.49764.1-.39937.30004-.59905.60005-.59905.1,0,.20001,0,.20001.09984h0l.40004.19968.30004.39937h.00003Z"/>
      </g>
      <g id="Group_976">
        <path id="Path_276" class="st1" d="M231.26994,131.82003c0,.09984-.1.29953-.20001.39937-.1.09984-.20001.19969-.40004.19969h-1.1001v7.48821c0,.09984-.1.29952-.20001.39937-.1.09984-.20001.19968-.40004.19968h-.1c-.1,0-.30004-.09984-.40004-.19968s-.20001-.19968-.20001-.39937v-7.48821h-1.00008c-.1,0-.30004-.09984-.40004-.19969v-.6989c0-.39937.20001-.59906.50005-.59906h1.00008v-2.19654c0-.39937.20001-.59906.50005-.59906h.30004c.1,0,.30004.09984.40004.19969.1.09984.1.19969.20001.39937v2.19654h1.1001c.30004,0,.50005.19969.50005.59906v.29953h-.10006Z"/>
      </g>
      <g id="Group_977">
        <path id="Path_277" class="st1" d="M240.32476,139.89134c0,.09984-.1.29952-.20001.39937-.1.09984-.20001.19968-.40004.19968h-.40004c-.30004,0-.50005-.19968-.50005-.49921v-.39937c-.80007.69889-1.80015.99843-2.80025.99843-1.00008.09984-2.00018-.29952-2.80025-.89859-.70006-.69889-1.1001-1.69732-1.1001-2.79561v-5.69104c0-.09984.1-.29953.20001-.39937.1-.09984.20001-.19969.40004-.19969h.40004c.1,0,.30004.09984.40004.19969.1.09984.20001.29953.20001.39937v5.69104c0,1.49764.80007,2.29639,2.40022,2.29639.80007.09984,1.60014-.29952,2.20021-.99843.50005-.69889.70006-1.49764.70006-2.29639v-4.69262c0-.39937.20001-.59906.50005-.59906h.40004c.1,0,.30004.09984.40004.19969.1.09984.20001.29953.20001.39937l-.20003,8.68632.00002.00003Z"/>
      </g>
      <g id="Group_978">
        <path id="Path_278" class="st1" d="M251.02373,139.85238c0,.29952-.1.49921-.40004.49921h-.50005c-.30004,0-.50005-.09984-.50005-.39937v-.69889c-1.90017,1.79718-4.90045,1.69732-6.80061-.19968-1.60014-2.19654-1.60014-5.09198,0-7.18869.90009-.99843,2.20021-1.59749,3.50031-1.49764,1.20011-.09984,2.40022.39937,3.20029,1.29795v-.6989c0-.09984.1-.29953.20001-.39937.1-.09984.20001-.19969.40004-.19969h.40004c.40004,0,.50005.19969.50005.59906v8.88601h.00002ZM249.52358,135.4593c.1-.89859-.20001-1.89701-.80007-2.59591-.60005-.6989-1.60014-1.09828-2.50023-.99843-.90009,0-1.80015.39937-2.40022,1.09828-.60005.6989-.80007,1.69732-.80007,2.59592s.20001,1.79718.70006,2.49607c0,0,.1,0,.1.09984.60005.69889,1.50013,1.09827,2.40022.99843.90009,0,1.80015-.29952,2.40022-.99843.60005-.79873,1.00008-1.69732.90009-2.69575l.00002-.00002Z"/>
      </g>
      <g id="Group_979">
        <path id="Path_279" class="st1" d="M253.95497,139.80746c0,.09984-.1.29952-.20001.39937-.1.09984-.20001.19968-.40004.19968h-.20001c-.40004,0-.60005-.19968-.60005-.49921v-12.18083c0-.29953.1-.49921.40004-.59906h.30004c.30004,0,.50005.29953.60005.59906l.10001,12.08099h-.00003Z"/>
      </g>
      <g id="Group_980">
        <path id="Path_280" class="st1" d="M273.07572,135.32051c.1,1.29795-.30002,2.59591-1.1001,3.59434,0,0,0,.09984-.1.09984-1.80017,1.89702-4.80043,2.0967-6.7006.29952l-.1-.09984v3.59434c0,.39937-.20003.59905-.50005.59905h-.40002c-.40004,0-.50005-.19968-.50005-.59905v-11.98114c0-.29953.1-.49921.40004-.59906h.50003c.40002,0,.50005.19969.50005.59906v.49921c.80007-.89859,2.0002-1.3978,3.20029-1.29795,1.30012-.09984,2.60024.49921,3.50031,1.49764,1.0001,1.09828,1.40012,2.49607,1.30012,3.79403h-.00003ZM271.6756,135.32051c0-.89859-.20003-1.89701-.70008-2.59591-.60005-.6989-1.50015-1.19812-2.40022-1.09828-.90007-.09984-1.80017.29953-2.50021.99843-.60005.6989-.90007,1.69732-.90007,2.69576,0,2.59591,1.1001,3.89386,3.30029,3.89386.90007,0,1.80017-.39937,2.30022-1.09827.60005-.79873.90007-1.79718.90007-2.79561h0v.00002Z"/>
      </g>
      <g id="Group_981">
        <path id="Path_281" class="st1" d="M279.10127,131.40462l-.30002.29953c0,.09984-.1.09984-.20003.09984-.90007,0-1.80017.49921-2.20019,1.3978-.50005.99843-.70008,2.0967-.60005,3.19497v3.39465c0,.09984-.1.29952-.20003.39937-.1.09984-.20003.19968-.40002.19968h-.30002c-.30002,0-.50005-.19968-.50005-.49921v-8.68632c0-.09984.1-.29953.20003-.39937.1-.09984.20003-.19969.40002-.19969h.30002c.1,0,.30002.09984.40002.19969.1.09984.20003.19969.20003.39937v.49921l.1-.09984c.70008-.6989,1.70014-1.09828,2.70024-1.09828.30002,0,.50005.19969.50005.49921l-.10003.39937h.00003Z"/>
      </g>
      <g id="Group_982">
        <path id="Path_282" class="st1" d="M288.83013,135.4593c.1,1.3978-.40002,2.69575-1.30012,3.69418-2.0002,1.89702-5.20045,1.89702-7.20065,0-1.70014-2.19654-1.70014-5.19183.1-7.38837,2.0002-1.89701,5.20045-1.89701,7.10062,0,.90007,1.09828,1.40012,2.39623,1.30012,3.69418l.00003.00002ZM287.43001,135.4593c.1-.99843-.30002-1.89701-.90007-2.69575-1.40012-1.29795-3.60034-1.29795-5.10046,0-.60005.6989-.90007,1.69732-.90007,2.69575s.30002,1.89702.90007,2.69575c.60005.69889,1.60014,1.09827,2.50021.99843,1.0001.09984,1.90017-.29952,2.60024-.99843.60005-.79873.90007-1.69732.90007-2.69575h0Z"/>
      </g>
      <g id="Group_983">
        <path id="Path_283" class="st1" d="M299.43308,135.32051c.1,1.29795-.30002,2.59591-1.1001,3.59434,0,0,0,.09984-.1.09984-1.80017,1.89702-4.70044,2.0967-6.7006.29952l-.1-.09984v3.59434c0,.39937-.20003.59905-.50005.59905h-.40002c-.40002,0-.50005-.19968-.50005-.59905v-11.98114c0-.39937.20003-.59906.50005-.59906h.40002c.40002,0,.50005.19969.50005.59906v.49921c.80007-.89859,2.0002-1.3978,3.20029-1.29795,1.30012-.09984,2.60024.49921,3.50031,1.49764,1.0001,1.09828,1.40012,2.49607,1.30012,3.79403h-.00003ZM298.03296,135.32051c0-.89859-.20003-1.89701-.70008-2.59591-.60005-.6989-1.50015-1.19812-2.40022-1.09828-.90007-.09984-1.80017.29953-2.50021.99843-.60005.79874-.90007,1.69732-.90007,2.69576,0,2.59591,1.1001,3.89386,3.30029,3.89386.90007,0,1.80017-.39937,2.30022-1.09827.60005-.79873.90007-1.79718.90007-2.79561h0v.00002Z"/>
      </g>
      <g id="Group_984">
        <path id="Path_284" class="st1" d="M309.81305,135.55914c0,.29952-.20003.49921-.40002.59905h-7.60067c-.1,1.59748,1.20009,2.99529,2.80027,3.09513h.50005c.60005,0,1.30012-.19968,1.80017-.49921.60005-.29952,1.0001-.79873,1.20009-1.3978h0c0-.29952.30002-.39937.50005-.39937h.40002c.30002,0,.50005.19968.60005.39937v.19968c-.60005,1.99686-2.10019,2.99529-4.50041,2.99529-1.30012.09984-2.60024-.39937-3.50031-1.3978-.80007-1.09827-1.30012-2.39623-1.20009-3.69418-.1-1.29795.40002-2.59591,1.30012-3.59434.90007-.99843,2.20019-1.49764,3.50031-1.49764,2.50021-.19969,4.60041,1.69732,4.80043,4.19341v.59905l-.20003.39937h-.00003ZM308.2129,134.66055c-.1-.6989-.40002-1.3978-.80007-1.89701-.60005-.59906-1.50015-.99843-2.30022-.89859-.80007,0-1.60014.19969-2.20019.79874-.60005.49921-1.0001,1.29795-1.1001,2.0967h6.40058v-.09984Z"/>
      </g>
      <g id="Group_985">
        <path id="Path_285" class="st1" d="M315.64456,131.40462l-.30002.29953c0,.09984-.1.09984-.20003.09984-.90007,0-1.80017.49921-2.20019,1.3978-.50005.99843-.70008,2.0967-.60005,3.19497v3.39465c0,.09984-.1.29952-.20003.39937-.1.09984-.20003.19968-.40002.19968h-.30002c-.30002,0-.50005-.19968-.50005-.39937v-8.78617c0-.09984.1-.29953.20003-.39937.1-.09984.20003-.19969.40002-.19969h.30002c.1,0,.30002.09984.40002.19969.1.09984.20003.19969.20003.39937v.49921l.1-.09984c.70008-.6989,1.70014-1.09828,2.70024-1.09828.30002,0,.50005.19969.50005.49921v.39937h-.10003l.00003.00002Z"/>
      </g>
      <g id="Group_986">
        <path id="Path_286" class="st1" d="M320.64603,131.82003c0,.09984-.1.29953-.1.39937-.1.09984-.20003.19969-.40002.19969h-1.1001v7.48821c0,.09984-.1.29952-.1.39937-.1.09984-.20003.19968-.40002.19968h-.30002c-.1,0-.30002-.09984-.40002-.19968s-.20003-.19968-.1-.39937v-7.48821h-1.0001c-.1,0-.30002-.09984-.40002-.19969-.1-.09984-.1-.19969-.1-.39937v-.29953c0-.39937.20003-.59906.50005-.59906h1.0001v-2.19654c0-.39937.20003-.59906.50005-.59906h.30002c.1,0,.30002.09984.40002.19969.1.09984.1.19969.1.39937v2.19654h1.1001c.30002,0,.50005.19969.50005.59906v.29953h-.00009Z"/>
      </g>
      <g id="Group_987">
        <path id="Path_287" class="st1" d="M329.83888,139.53189c0,2.79561-1.50015,4.1934-4.50041,4.1934-.90007,0-1.90017-.19968-2.70024-.69889h0c-.90007-.59905-1.40012-1.59748-1.40012-2.59591,0-.39937.20003-.59905.50005-.59905h.40002c.30002,0,.50005.19968.50005.49921.1,1.29795,1.0001,1.89702,2.70024,1.89702,2.0002,0,3.00026-.89859,3.00026-2.59591-1.60014,1.3978-4.10036,1.3978-5.7005.09984-.70008-.79873-1.1001-1.79718-1.0001-2.79561v-5.99057c0-.09984.1-.29953.20003-.39937.1-.09984.20003-.19969.40002-.19969h.40002c.1,0,.30002.09984.40002.19969.1.09984.20003.19969.20003.39937v5.89073c0,.69889.20003,1.29795.70008,1.79718,1.20009.99843,3.00026.79873,4.00036-.39937.50005-.69889.70008-1.59748.70008-2.39623v-4.89231c0-.29953.1-.49921.40002-.59906h.50005c.1,0,.30002.09984.40002.19969.1.09984.20003.19969.20003.39937l-.30005,8.58649h.00006Z"/>
      </g>
      <g id="Group_988">
        <path id="Path_288" class="st1" d="M340.4758,139.80746c0,.09984-.1.29952-.20003.39937-.1.09984-.20003.19968-.40002.19968h-.20003c-.40002,0-.60005-.19968-.60005-.49921v-12.18083c0-.29953.20003-.49921.40002-.59906h.30002c.30002,0,.50005.29953.60005.59906v12.08099h.10003Z"/>
      </g>
      <g id="Group_989">
        <path id="Path_289" class="st1" d="M351.18278,139.85238c0,.29952-.1.49921-.40002.49921h-.50005c-.30002,0-.50005-.09984-.50005-.39937v-.69889c-1.90017,1.79718-4.90043,1.69732-6.80063-.19968-1.60014-2.19654-1.60014-5.09198,0-7.18869.90007-.99843,2.20019-1.59749,3.50031-1.49764,1.20009-.09984,2.40022.39937,3.20029,1.29795v-.6989c0-.09984.1-.29953.20003-.39937.1-.09984.20003-.19969.40002-.19969h.40002c.40002,0,.50005.19969.50005.59906v8.88601h.00003ZM349.68263,135.4593c.1-.89859-.20003-1.89701-.80007-2.59591s-1.50015-1.09828-2.50021-.99843c-.90007,0-1.80017.39937-2.40022,1.09828s-.80007,1.69732-.80007,2.59592.20003,1.79718.70008,2.49607c0,0,.1,0,.1.09984.60005.69889,1.50015,1.09827,2.40022.99843.90007,0,1.80017-.29952,2.40022-.99843.60005-.79873,1.0001-1.69732.90007-2.69575v-.00002Z"/>
      </g>
      <g id="Group_990">
        <path id="Path_290" class="st1" d="M366.53613,131.14708c0,.09984,0,.19969-.1.29953h0l-3.60034,8.68633c-.1.19968-.30002.29952-.50005.29952h-.50005c-.20003,0-.40002-.09984-.50005-.29952l-1.90017-4.29324-1.80017,4.29324c-.1.19968-.30002.29952-.50005.29952h-.50005c-.20003,0-.40002-.09984-.50005-.29952l-3.90036-8.68632c0-.09984-.1-.19969-.1-.29953,0-.29953.20003-.49921.60005-.49921h.50005c.20003,0,.40002.09984.50005.29953l3.10029,7.18868,1.70014-4.19341-1.1001-2.49607c0-.09984-.1-.19969-.1-.29953,0-.29953.20003-.49921.60005-.49921h.50005c.20003,0,.40002.09984.50005.29953l3.10029,7.18869,2.90027-7.08885c.1-.09984.1-.19969.20003-.29953.1-.09984.20003-.09984.30002-.09984h.40002c.50005,0,.70004.19969.70004.49921h.00003Z"/>
      </g>
    </g>
  </g>
  <path class="st0" d="M381.71859,64.13771c0,3.24987-2.55377,5.80102-5.88091,5.80102-3.28905,0-5.91429-2.55113-5.91429-5.80101,0-3.18013,2.62524-5.73126,5.91429-5.73126,3.32714,0,5.88091,2.55113,5.88091,5.73126ZM371.39145,64.13771c0,2.55113,1.89267,4.57852,4.47998,4.57852,2.52345,0,4.37891-2.02739,4.37891-4.5441,0-2.55113-1.85546-4.61312-4.41266-4.61312-2.55355,0-4.44622,2.06199-4.44622,4.57871ZM374.92964,67.14338h-1.33176v-5.73108c.52442-.10616,1.25991-.17609,2.20624-.17609,1.08281,0,1.57275.17609,1.99538.42011.31284.2442.55817.69892.55817,1.25709,0,.62973-.48994,1.11886-1.18914,1.32955v.06974c.56.20888.87557.62899,1.04922,1.39767.1771.87321.28,1.22248.42171,1.43299h-1.4363c-.17364-.21051-.27909-.73407-.45638-1.39767-.10179-.62973-.45276-.90926-1.18822-.90926h-.62895v2.30692l.00003.00002ZM374.96229,63.89349h.63096c.73546,0,1.33085-.24602,1.33085-.84041,0-.52284-.3845-.87393-1.22632-.87393-.35005,0-.59536.03714-.73546.07247v1.64187h-.00003Z"/>
  <path id="Union_11" class="st2" d="M140.39999,161c-35.7,33.3-91.2,33.3-126.9,0"/>
</svg>