<svg viewBox="1341 854.4 106.3 19.1" xmlns="http://www.w3.org/2000/svg"><path d="m1380.9 864.6v4.5c0 .7-.6 1.3-1.3 1.3s-1.3-.6-1.3-1.3v-4.5c0-1.1-.9-1.9-1.9-1.9-1.1 0-1.9.9-1.9 1.9v4.5c0 .7-.6 1.3-1.3 1.3s-1.3-.6-1.3-1.3v-4.5c0-2.5 2-4.5 4.5-4.5 1.3 0 2.4.5 3.2 1.4.8-.9 2-1.4 3.2-1.4 2.5 0 4.5 2 4.5 4.5v4.5c0 .7-.6 1.3-1.3 1.3s-1.3-.6-1.3-1.3v-4.5c0-1.1-.9-1.9-1.9-1.9-1-.1-1.9.8-1.9 1.9zm-33.5 1.3v-4.5c0-.7.6-1.3 1.3-1.3s1.3.6 1.3 1.3v4.5c0 1.1.9 1.9 1.9 1.9 1.1 0 1.9-.9 1.9-1.9v-4.5c0-.7.6-1.3 1.3-1.3s1.3.6 1.3 1.3v4.5c0 2.5-2 4.5-4.5 4.5-1.3 0-2.4-.5-3.2-1.4-.8.9-2 1.4-3.2 1.4-2.5 0-4.5-2-4.5-4.5v-4.5c0-.7.6-1.3 1.3-1.3s1.3.6 1.3 1.3v4.5c0 1.1.9 1.9 1.9 1.9 1.1 0 1.9-.9 1.9-1.9zm11.7-9.4c.8 0 1.5.6 1.5 1.5 0 .8-.6 1.5-1.5 1.5-.8 0-1.5-.6-1.5-1.5s.7-1.5 1.5-1.5zm1.3 12.6c0 .7-.6 1.3-1.3 1.3s-1.3-.6-1.3-1.3v-7.8c0-.7.6-1.3 1.3-1.3s1.3.6 1.3 1.3zm7.1-1.3c.4 0 .6-.3.6-.6 0-.4-.3-.6-.6-.6h-2.6c-1.8 0-3.2-1.5-3.2-3.2 0-1.8 1.5-3.2 3.2-3.2h3.9c.7 0 1.3.6 1.3 1.3s-.6 1.3-1.3 1.3h-3.9c-.4 0-.6.3-.6.6 0 .4.3.6.6.6h2.6c1.8 0 3.2 1.5 3.2 3.2 0 1.8-1.5 3.2-3.2 3.2h-4.5c-.7 0-1.3-.6-1.3-1.3s.6-1.3 1.3-1.3zm25.9-7.8c2.9 0 5.2 2.3 5.2 5.2s-2.3 5.2-5.2 5.2-5.2-2.3-5.2-5.2c.1-2.8 2.4-5.2 5.2-5.2zm0 7.8c1.4 0 2.6-1.2 2.6-2.6s-1.2-2.6-2.6-2.6-2.6 1.2-2.6 2.6 1.2 2.6 2.6 2.6z" fill="#474e59"/><path d="m1415 869.1c0 .7-.6 1.3-1.3 1.3s-1.3-.6-1.3-1.3v-11.7c0-.7.6-1.3 1.3-1.3s1.3.6 1.3 1.3zm17.4-9.1c-1 0-1.8.3-2.6.7v-3.3c0-.7-.6-1.3-1.3-1.3s-1.3.6-1.3 1.3v11.7c0 .7.6 1.3 1.3 1.3.5 0 1-.3 1.2-.8 0 0 .1 0 .1.1.8.4 1.6.7 2.6.7 2.9 0 5.2-2.3 5.2-5.2-.1-2.8-2.4-5.2-5.2-5.2zm0 7.8c-1.4 0-2.6-1.2-2.6-2.6s1.2-2.6 2.6-2.6 2.6 1.2 2.6 2.6-1.2 2.6-2.6 2.6zm11.7 0c.4 0 .6-.3.6-.6 0-.4-.3-.6-.6-.6h-2.6c-1.8 0-3.2-1.5-3.2-3.2 0-1.8 1.5-3.2 3.2-3.2h3.9c.7 0 1.3.6 1.3 1.3s-.6 1.3-1.3 1.3h-3.9c-.4 0-.6.3-.6.6 0 .4.3.6.6.6h2.6c1.8 0 3.2 1.5 3.2 3.2 0 1.8-1.5 3.2-3.2 3.2h-4.5c-.7 0-1.3-.6-1.3-1.3s.6-1.3 1.3-1.3zm-19.4-7.8c-.5 0-1 .3-1.2.8-.8-.5-1.7-.8-2.7-.8-2.9 0-5.2 2.3-5.2 5.2s2.3 5.2 5.2 5.2c1 0 1.9-.3 2.7-.8.2.5.7.8 1.2.8.7 0 1.3-.6 1.3-1.3v-7.8c0-.7-.6-1.3-1.3-1.3zm-3.9 7.8c-1.4 0-2.6-1.2-2.6-2.6s1.2-2.6 2.6-2.6 2.6 1.2 2.6 2.6-1.1 2.6-2.6 2.6z" fill="#a9b2bf"/><path d="m1409.6 854.4h-9c-.4 0-.6.3-.6.6 0 .4.3.6.6.6h.4v13.8c0 2.2 1.8 4.1 4.1 4.1 1.1 0 2.1-.5 2.9-1.2.7-.7 1.2-1.7 1.2-2.9v-13.8h.4c.4 0 .6-.3.6-.6.1-.3-.2-.6-.6-.6zm-3.7 8c-.4.4-1 .4-1.4 0s-.4-1 0-1.4 1-.4 1.4 0 .4 1 0 1.4zm-1.6-4c.3-.3.7-.3 1 0s.3.7 0 1-.7.3-1 0-.3-.8 0-1zm1.8 1c.2-.2.5-.2.7 0s.2.5 0 .7-.5.2-.7 0-.2-.5 0-.7zm2.2 4.8s-1.4-1.1-3.2-.4-3.1-.3-3.1-.3v-7.9h6.3z" fill="#f2c04c"/></svg>